<svg width="121" height="32" viewBox="0 0 121 32" fill="none" xmlns="http://www.w3.org/2000/svg">
<g clip-path="url(#clip0_329_9734)">
<path d="M36.0658 5.15137C39.1563 5.15137 40.6168 6.8975 40.6168 9.08375C40.6168 10.7915 39.695 12.4214 37.4956 12.9213L40.7889 18.5228H38.7371L35.6157 13.0539H33.5478V18.5224H31.8359V5.15137H36.0658ZM36.0658 6.59047H33.5461V11.6615H36.0655C38.0031 11.6615 38.8495 10.5869 38.8495 9.09033C38.8495 7.59371 38.0235 6.59047 36.0658 6.59047Z" fill="#49484C"/>
<path d="M47.7257 18.6946C44.7925 18.6946 42.6289 16.5853 42.6289 13.2465C42.6289 9.90778 44.717 7.83691 47.7257 7.83691C50.7345 7.83691 52.6716 9.98461 52.6716 12.8628C52.6728 13.2154 52.6539 13.5677 52.6151 13.9181H44.3781C44.5125 16.048 45.9771 17.2184 47.7252 17.2184C49.2677 17.2184 50.2459 16.4126 50.6221 15.2802H52.4658C51.9405 17.1993 50.2824 18.6946 47.7257 18.6946ZM44.3961 12.4983H50.9035C50.9223 10.4424 49.4174 9.31457 47.6492 9.31457C45.9774 9.31436 44.5839 10.4465 44.3958 12.4982L44.3961 12.4983Z" fill="#49484C"/>
<path d="M59.1788 7.83691C61.0976 7.83691 62.413 8.8347 63.015 9.92702V8.0082H64.7456V18.5205H63.015V16.5647C62.3943 17.6968 61.0587 18.6946 59.1598 18.6946C56.4147 18.6946 54.2891 16.4879 54.2891 13.2288C54.2893 9.9462 56.4136 7.83691 59.1788 7.83691ZM59.5161 9.35277C57.6349 9.35277 56.0373 10.7522 56.0373 13.2274C56.0373 15.7025 57.6363 17.1597 59.5161 17.1597C61.3959 17.1597 63.0094 15.7204 63.0094 13.2452C63.015 10.8096 61.3986 9.35277 59.5161 9.35277H59.5161Z" fill="#49484C"/>
<path d="M67.6406 4.32617H69.3521V18.5225H67.6406V4.32617Z" fill="#49484C"/>
<path d="M78.1696 4.98145C81.0088 4.98145 83.2648 6.43839 84.2429 9.02872H82.1942C81.4793 7.41833 80.0873 6.51507 78.17 6.51507C75.4248 6.51507 73.3744 8.549 73.3744 11.8288C73.3744 15.1085 75.4248 17.1233 78.17 17.1233C80.0873 17.1233 81.4794 16.2228 82.1942 14.6302H84.2433C83.2651 17.2014 81.0091 18.6391 78.17 18.6391C74.5031 18.6391 71.625 15.8391 71.625 11.8288C71.625 7.81843 74.5027 4.98145 78.1696 4.98145Z" fill="#F6A41C"/>
<path d="M95.9225 18.5243H94.2107V16.9701C93.5509 18.0666 92.2919 18.6765 90.9186 18.6765C88.5498 18.6765 86.6875 17.1799 86.6875 14.1688V8.01074H88.3805V13.9436C88.3805 16.0735 89.5266 17.1672 91.2572 17.1672C93.0254 17.1672 94.2133 16.0529 94.2133 13.7915V8.01186H95.9251L95.9225 18.5243Z" fill="#F6A41C"/>
<path d="M104.383 7.83949C107.167 7.83949 109.274 9.94877 109.274 13.2299C109.274 16.5111 107.148 18.6957 104.383 18.6957C102.502 18.6957 101.168 17.7364 100.528 16.5865V18.5247H98.8164V4.32812H100.528V9.96934C101.187 8.79754 102.56 7.83949 104.383 7.83949ZM104.026 9.35535C102.165 9.35535 100.532 10.8123 100.532 13.2491C100.532 15.7243 102.169 17.1634 104.026 17.1634C105.926 17.1634 107.519 15.7052 107.519 13.2311C107.519 10.7569 105.926 9.35535 104.026 9.35535Z" fill="#F6A41C"/>
<path d="M115.987 18.6955C113.054 18.6955 110.891 16.5863 110.891 13.2475C110.891 9.90876 112.979 7.83789 115.987 7.83789C118.996 7.83789 120.933 9.98559 120.933 12.8638C120.934 13.2163 120.915 13.5687 120.877 13.9191H112.64C112.775 16.0489 114.238 17.2194 115.987 17.2194C117.53 17.2194 118.508 16.4136 118.884 15.2812H120.732C120.194 17.2002 118.546 18.6955 115.987 18.6955ZM112.658 12.4992H119.165C119.184 10.4434 117.679 9.31554 115.911 9.31554C114.238 9.31533 112.847 10.4475 112.658 12.4992V12.4992Z" fill="#F6A41C"/>
<path d="M32.4184 24.1179V26.1616H31.9844V21.7373H32.4184V23.811L34.2995 21.7414H34.8518L32.8213 23.948L34.8744 26.1615H34.3037L32.4184 24.1179Z" fill="#49484C"/>
<path d="M38.0485 24.188C38.0485 23.4219 37.6454 23.0299 37.0196 23.0299C36.3937 23.0299 35.9446 23.4342 35.9446 24.2772V26.1617H35.5117V22.7065H35.9511V23.2943C36.1687 22.864 36.6041 22.6436 37.1066 22.6436C37.8749 22.6436 38.4839 23.1246 38.4839 24.1374V26.1618H38.0553L38.0485 24.188Z" fill="#49484C"/>
<path d="M40.9228 26.2149C39.9675 26.2149 39.2422 25.5296 39.2422 24.4331C39.2422 23.3367 39.9852 22.6514 40.9352 22.6514C41.8853 22.6514 42.6282 23.3284 42.6282 24.4331C42.6282 25.5378 41.8782 26.2149 40.9228 26.2149ZM40.9228 25.8283C41.5624 25.8283 42.1832 25.3856 42.1832 24.4359C42.1832 23.4862 41.5732 23.0435 40.9228 23.0435C40.2725 23.0435 39.6744 23.4862 39.6744 24.4359C39.6744 25.3856 40.2766 25.8283 40.9228 25.8283Z" fill="#49484C"/>
<path d="M43.0195 22.7139H43.4603L44.304 25.7209L45.2527 22.7139H45.6867L46.6271 25.7291L47.4644 22.7139H47.893L46.8342 26.1622H46.4002L45.4596 23.2634L44.519 26.1622H44.08L43.0195 22.7139Z" fill="#49484C"/>
<path d="M49.8203 21.7373H50.3107L51.4394 24.0344L52.5626 21.7373H53.0464L51.657 24.4401V26.1614H51.2231V24.4401L49.8203 21.7373Z" fill="#49484C"/>
<path d="M55.165 26.2149C54.2097 26.2149 53.4844 25.5296 53.4844 24.4331C53.4844 23.3367 54.2287 22.6514 55.1774 22.6514C56.1261 22.6514 56.8718 23.3284 56.8718 24.4331C56.8718 25.5378 56.1204 26.2149 55.165 26.2149ZM55.165 25.8283C55.8046 25.8283 56.4254 25.3856 56.4254 24.4359C56.4254 23.4862 55.8153 23.0435 55.165 23.0435C54.5147 23.0435 53.9181 23.4862 53.9181 24.4359C53.9181 25.3856 54.5187 25.8283 55.165 25.8283Z" fill="#49484C"/>
<path d="M60.6 26.1622H60.1659V25.5547C59.9601 25.9919 59.5128 26.2194 59.0116 26.2194C58.2417 26.2194 57.6328 25.7384 57.6328 24.7255V22.7139H58.0614V24.682C58.0614 25.4482 58.4646 25.8415 59.0904 25.8415C59.7162 25.8415 60.1653 25.4304 60.1653 24.5943V22.7139H60.5993L60.6 26.1622Z" fill="#49484C"/>
<path d="M62.0277 26.1627H61.5938V22.7143H62.0277V23.3284C62.2145 22.9049 62.6055 22.6514 63.1886 22.6514V23.1132H63.0704C62.5073 23.1132 62.0277 23.3721 62.0277 24.2397V26.1627Z" fill="#49484C"/>
<path d="M67.4667 21.6865C68.4339 21.6865 69.1542 22.1799 69.4648 23.03H68.9555C68.7136 22.4406 68.2058 22.0706 67.4669 22.0706C66.517 22.0706 65.7914 22.7847 65.7914 23.9441C65.7914 25.1036 66.517 25.8108 67.4669 25.8108C68.2059 25.8108 68.7138 25.4436 68.9555 24.8679H69.4648C69.1544 25.704 68.4358 26.1974 67.4667 26.1974C66.2575 26.1974 65.3438 25.2737 65.3438 23.9443C65.3438 22.6148 66.2628 21.6865 67.4667 21.6865Z" fill="#49484C"/>
<path d="M71.8072 26.2149C70.8506 26.2149 70.125 25.5296 70.125 24.4331C70.125 23.3367 70.8692 22.6514 71.8179 22.6514C72.7666 22.6514 73.5123 23.3284 73.5123 24.4331C73.5123 25.5378 72.7652 26.2149 71.8072 26.2149ZM71.8072 25.8283C72.4452 25.8283 73.0662 25.3856 73.0662 24.4359C73.0662 23.4862 72.4575 23.0435 71.8139 23.0435C71.1702 23.0435 70.5654 23.4862 70.5654 24.4359C70.5654 25.3856 71.1609 25.8283 71.8072 25.8283Z" fill="#49484C"/>
<path d="M79.2624 24.1875C79.2624 23.4214 78.8714 23.0294 78.2695 23.0294C77.6675 23.0294 77.2199 23.4405 77.2199 24.2876V26.1611H76.7981V24.1875C76.7981 23.4214 76.395 23.0294 75.7997 23.0294C75.2044 23.0294 74.7501 23.4405 74.7501 24.2876V26.1611H74.3164V22.7059H74.7504V23.3007C74.8571 23.0939 75.0193 22.9223 75.2179 22.8058C75.4165 22.6894 75.6435 22.6329 75.8723 22.6429C76.4366 22.6429 76.9219 22.917 77.126 23.4899C77.2128 23.233 77.3788 23.0116 77.5992 22.8589C77.8196 22.7063 78.0826 22.6305 78.3487 22.6429C79.0999 22.6429 79.6924 23.124 79.6924 24.1369V26.1612H79.2637V24.1875H79.2624Z" fill="#49484C"/>
<path d="M85.6051 24.1875C85.6051 23.4214 85.2155 23.0294 84.6121 23.0294C84.0088 23.0294 83.5641 23.4405 83.5641 24.2876V26.1611H83.1354V24.1875C83.1354 23.4214 82.7324 23.0294 82.1358 23.0294C81.5392 23.0294 81.0862 23.4405 81.0862 24.2876V26.1611H80.6523V22.7059H81.0863V23.3007C81.1931 23.0937 81.3555 22.9219 81.5543 22.8055C81.7532 22.689 81.9805 22.6326 82.2096 22.6429C82.7739 22.6429 83.2591 22.917 83.4618 23.4899C83.5486 23.233 83.7146 23.0116 83.9351 22.8589C84.1555 22.7062 84.4184 22.6305 84.6846 22.6429C85.4357 22.6429 86.0282 23.124 86.0282 24.1369V26.1612H85.5996V24.1875H85.6051Z" fill="#49484C"/>
<path d="M89.9279 26.1622H89.4939V25.5547C89.2881 25.9919 88.8409 26.2194 88.3398 26.2194C87.5698 26.2194 86.9609 25.7384 86.9609 24.7255V22.7139H87.3895V24.682C87.3895 25.4482 87.7926 25.8415 88.4185 25.8415C89.0444 25.8415 89.4934 25.4304 89.4934 24.5943V22.7139H89.9274L89.9279 26.1622Z" fill="#49484C"/>
<path d="M93.4562 24.188C93.4562 23.4219 93.0531 23.0299 92.4272 23.0299C91.8013 23.0299 91.3523 23.4342 91.3523 24.2772V26.1617H90.918V22.7065H91.352V23.2943C91.5696 22.864 92.005 22.6436 92.5062 22.6436C93.2762 22.6436 93.885 23.1246 93.885 24.1374V26.1618H93.4564L93.4562 24.188Z" fill="#49484C"/>
<path d="M94.7546 21.7252C94.7591 21.6548 94.7861 21.5878 94.8314 21.5344C94.8768 21.4811 94.938 21.4443 95.0057 21.4298C95.0735 21.4152 95.144 21.4237 95.2066 21.4539C95.2692 21.4841 95.3203 21.5343 95.3523 21.5969C95.3843 21.6596 95.3953 21.7311 95.3836 21.8007C95.372 21.8703 95.3384 21.9341 95.2878 21.9824C95.2373 22.0307 95.1727 22.0608 95.1039 22.0681C95.035 22.0754 94.9657 22.0595 94.9065 22.0229C94.8569 21.9922 94.8165 21.9482 94.7897 21.8957C94.763 21.8432 94.7508 21.7843 94.7546 21.7252ZM94.8527 22.7079H95.2866V26.1631H94.8527V22.7079Z" fill="#49484C"/>
<path d="M96.3974 23.0803H95.9258V22.7143H96.3974V21.8467H96.8381V22.7143H97.7693V23.0873H96.8381V25.2322C96.8381 25.6571 96.9792 25.7887 97.3756 25.7887H97.7787V26.1684H97.3122C96.7236 26.1684 96.4067 25.9217 96.4067 25.2308L96.3974 23.0803Z" fill="#49484C"/>
<path d="M100.829 22.7139H101.275L99.2646 27.785H98.8118L99.4689 26.1403L98.0781 22.7139H98.5565L99.7106 25.662L100.829 22.7139Z" fill="#49484C"/>
<path d="M105.063 26.1615H103.562V21.7373H105.02C105.933 21.7373 106.364 22.2307 106.364 22.8516C106.371 23.0878 106.298 23.3194 106.157 23.5066C106.015 23.6939 105.815 23.8252 105.589 23.8781C105.836 23.9295 106.059 24.0669 106.218 24.2669C106.377 24.4668 106.464 24.717 106.462 24.9746C106.466 25.6431 105.976 26.1615 105.063 26.1615ZM104.991 22.1102H103.998V23.6932H105.012C105.602 23.6932 105.932 23.389 105.932 22.8955C105.932 22.4021 105.616 22.1101 104.991 22.1101L104.991 22.1102ZM105.014 24.0605H103.996V25.7874H105.032C105.66 25.7874 106.032 25.4656 106.032 24.9338C106.032 24.402 105.634 24.0608 105.012 24.0608L105.014 24.0605Z" fill="#49484C"/>
<path d="M108.732 26.2149C107.77 26.2149 107.07 25.5296 107.07 24.4331C107.07 23.3367 107.758 22.6514 108.732 22.6514C109.707 22.6514 110.334 23.3721 110.334 24.2522C110.336 24.3683 110.332 24.4846 110.322 24.6003H107.511C107.549 25.4103 108.101 25.8338 108.734 25.8338C109.312 25.8338 109.703 25.5227 109.828 25.0608H110.286C110.13 25.7187 109.582 26.2149 108.732 26.2149ZM107.51 24.2453H109.892C109.911 23.4422 109.341 23.0365 108.714 23.0365C108.086 23.0365 107.566 23.4409 107.51 24.2453Z" fill="#49484C"/>
<path d="M111.253 23.0803H110.781V22.7143H111.253V21.8467H111.694V22.7143H112.625V23.0873H111.694V25.2322C111.694 25.6571 111.838 25.7887 112.231 25.7887H112.634V26.1684H112.168C111.579 26.1684 111.262 25.9217 111.262 25.2308L111.253 23.0803Z" fill="#49484C"/>
<path d="M113.464 23.0803H112.992V22.7143H113.464V21.8467H113.905V22.7143H114.836V23.0873H113.905V25.2322C113.905 25.6571 114.049 25.7887 114.442 25.7887H114.845V26.1684H114.379C113.79 26.1684 113.473 25.9217 113.473 25.2308L113.464 23.0803Z" fill="#49484C"/>
<path d="M117.011 26.2149C116.049 26.2149 115.348 25.5296 115.348 24.4331C115.348 23.3367 116.037 22.6514 117.011 22.6514C117.985 22.6514 118.613 23.3721 118.613 24.2522C118.615 24.3683 118.611 24.4846 118.601 24.6003H115.79C115.827 25.4103 116.38 25.8338 117.013 25.8338C117.59 25.8338 117.98 25.5227 118.105 25.0608H118.564C118.407 25.7187 117.862 26.2149 117.011 26.2149ZM115.79 24.2453H118.172C118.191 23.4422 117.62 23.0365 116.994 23.0365C116.368 23.0365 115.838 23.4409 115.79 24.2453Z" fill="#49484C"/>
<path d="M119.84 26.1627H119.406V22.7143H119.84V23.3284C120.027 22.9049 120.418 22.6514 121.001 22.6514V23.1132H120.883C120.319 23.1132 119.84 23.3721 119.84 24.2397V26.1694V26.1627Z" fill="#49484C"/>
<path d="M13.6078 27.4921V15.848L3.8125 9.99023" stroke="white" stroke-width="0.1575" stroke-miterlimit="10"/>
<path d="M23.4276 10.3115L13.6055 15.8486" stroke="white" stroke-width="0.1575" stroke-miterlimit="10"/>
<path d="M13.6421 31.999L0.00390625 23.7701V8.03361L13.5131 -0.000976562L27.0209 8.03326V23.7698L13.6421 31.999V31.999ZM13.6582 4.43688L3.92769 9.85748V21.5469L13.5953 27.424L23.2631 21.5469V10.3795L13.6582 4.43688Z" fill="#49484C"/>
<path d="M20.7276 19.9627L17.7178 18.3948L20.7276 16.3047L20.7424 11.8271L13.621 7.48926L6.64334 11.7339L6.38672 19.9625L10.0361 22.1829L10.2914 14.2821L13.5567 12.3222L16.6995 14.0435L13.6091 15.8487L13.5795 20.7581L16.8231 22.5097L20.7278 19.9632" fill="#F6A41C"/>
</g>
<defs>
<clipPath id="clip0_329_9734">
<rect width="121" height="32" fill="white"/>
</clipPath>
</defs>
</svg>
