<svg width="34" height="40" viewBox="0 0 34 40" fill="none" xmlns="http://www.w3.org/2000/svg">
<path d="M18.0982 5.26538H15.8975V13.8854H18.0982V5.26538Z" fill="#219BE4"/>
<path d="M19.3016 4.13257H14.6914V6.39809H19.3016V4.13257Z" fill="#219BE4"/>
<path d="M26.3612 4.13257H21.751V6.39809H26.3612V4.13257Z" fill="#219BE4"/>
<path d="M12.0164 4.13257H7.40625V6.39809H12.0164V4.13257Z" fill="#219BE4"/>
<path d="M23.1374 12.7527H10.6289V15.0182H23.1374V12.7527Z" fill="#219BE4"/>
<path d="M10.7583 4.91452L8.66406 5.61084L11.3685 14.2304L13.4627 13.5341L10.7583 4.91452Z" fill="#219BE4"/>
<path d="M23.0018 4.91366L20.2988 13.5337L22.3931 14.2296L25.0961 5.60961L23.0018 4.91366Z" fill="#219BE4"/>
<path d="M22.4683 11.0598H11.5264V14.0969H22.4683V11.0598Z" fill="#219BE4"/>
<path d="M18.3371 1.49398C18.3371 2.31874 17.687 2.98796 16.8858 2.98796C16.0846 2.98796 15.4346 2.31874 15.4346 1.49398C15.4346 0.669221 16.0846 0 16.8858 0C17.687 0 18.3371 0.669221 18.3371 1.49398Z" fill="#219BE4"/>
<path d="M25.508 1.49398C25.508 2.31874 24.8579 2.98796 24.0567 2.98796C23.2555 2.98796 22.6055 2.31874 22.6055 1.49398C22.6055 0.669221 23.2555 0 24.0567 0C24.8579 0 25.508 0.669221 25.508 1.49398Z" fill="#219BE4"/>
<path d="M11.1632 1.49398C11.1632 2.31874 10.5131 2.98796 9.71198 2.98796C8.91082 2.98796 8.26074 2.31874 8.26074 1.49398C8.26074 0.669221 8.91082 0 9.71198 0C10.5131 0 11.1632 0.669221 11.1632 1.49398Z" fill="#219BE4"/>
<path d="M6.75921 39.6576H0V4.13159H6.02563V6.39507H2.19873V37.3941H6.75921V39.6576Z" fill="#219BE4"/>
<path d="M33.9993 39.6576H28.3293V37.3941H31.8005V6.39507H27.9736V4.13159H33.9993V39.6576Z" fill="#219BE4"/>
<path d="M19.7651 39.8604H14.0961V17.8H19.7651V39.8604ZM26.1405 21.4405H7.70256V16.7133H26.1405V21.4405Z" fill="#635AD9"/>
</svg>
