<svg width="168" height="40" viewBox="0 0 168 40" fill="none" xmlns="http://www.w3.org/2000/svg">
<path d="M18.0982 5.26538H15.8975V13.8854H18.0982V5.26538Z" fill="#219BE4"/>
<path d="M19.3016 4.13257H14.6914V6.39809H19.3016V4.13257Z" fill="#219BE4"/>
<path d="M26.3612 4.13257H21.751V6.39809H26.3612V4.13257Z" fill="#219BE4"/>
<path d="M12.0164 4.13257H7.40625V6.39809H12.0164V4.13257Z" fill="#219BE4"/>
<path d="M23.1374 12.7527H10.6289V15.0182H23.1374V12.7527Z" fill="#219BE4"/>
<path d="M10.7583 4.91452L8.66406 5.61084L11.3685 14.2304L13.4627 13.5341L10.7583 4.91452Z" fill="#219BE4"/>
<path d="M23.0018 4.91366L20.2988 13.5337L22.3931 14.2296L25.0961 5.60961L23.0018 4.91366Z" fill="#219BE4"/>
<path d="M22.4683 11.0598H11.5264V14.0969H22.4683V11.0598Z" fill="#219BE4"/>
<path d="M18.3371 1.49398C18.3371 2.31874 17.687 2.98796 16.8858 2.98796C16.0846 2.98796 15.4346 2.31874 15.4346 1.49398C15.4346 0.669221 16.0846 0 16.8858 0C17.687 0 18.3371 0.669221 18.3371 1.49398Z" fill="#219BE4"/>
<path d="M25.508 1.49398C25.508 2.31874 24.8579 2.98796 24.0567 2.98796C23.2555 2.98796 22.6055 2.31874 22.6055 1.49398C22.6055 0.669221 23.2555 0 24.0567 0C24.8579 0 25.508 0.669221 25.508 1.49398Z" fill="#219BE4"/>
<path d="M11.1632 1.49398C11.1632 2.31874 10.5131 2.98796 9.71198 2.98796C8.91082 2.98796 8.26074 2.31874 8.26074 1.49398C8.26074 0.669221 8.91082 0 9.71198 0C10.5131 0 11.1632 0.669221 11.1632 1.49398Z" fill="#219BE4"/>
<path d="M6.75921 39.6576H0V4.13159H6.02563V6.39507H2.19873V37.3941H6.75921V39.6576Z" fill="#219BE4"/>
<path d="M33.9993 39.6576H28.3293V37.3941H31.8005V6.39507H27.9736V4.13159H33.9993V39.6576Z" fill="#219BE4"/>
<path d="M19.7651 39.8604H14.0961V17.8H19.7651V39.8604ZM26.1405 21.4405H7.70256V16.7133H26.1405V21.4405Z" fill="#635AD9"/>
<path d="M44.2627 37V18.7H38.5927V14.65H54.4927V18.7H48.9127V37H44.2627ZM59.7483 37.36C58.5683 37.36 57.5483 37.17 56.6883 36.79C55.8283 36.41 55.1683 35.87 54.7083 35.17C54.2483 34.45 54.0183 33.6 54.0183 32.62C54.0183 31.7 54.2283 30.89 54.6483 30.19C55.0683 29.47 55.7083 28.87 56.5683 28.39C57.4483 27.91 58.5383 27.57 59.8383 27.37L64.8483 26.56V29.86L60.6483 30.61C60.0083 30.73 59.5183 30.94 59.1783 31.24C58.8383 31.52 58.6683 31.93 58.6683 32.47C58.6683 32.97 58.8583 33.36 59.2383 33.64C59.6183 33.92 60.0883 34.06 60.6483 34.06C61.3883 34.06 62.0383 33.9 62.5983 33.58C63.1583 33.26 63.5883 32.83 63.8883 32.29C64.2083 31.73 64.3683 31.12 64.3683 30.46V26.2C64.3683 25.58 64.1183 25.06 63.6183 24.64C63.1383 24.22 62.4783 24.01 61.6383 24.01C60.8383 24.01 60.1283 24.23 59.5083 24.67C58.9083 25.11 58.4683 25.69 58.1883 26.41L54.5883 24.7C54.9083 23.78 55.4183 22.99 56.1183 22.33C56.8183 21.67 57.6583 21.16 58.6383 20.8C59.6183 20.44 60.6883 20.26 61.8483 20.26C63.2283 20.26 64.4483 20.51 65.5083 21.01C66.5683 21.51 67.3883 22.21 67.9683 23.11C68.5683 23.99 68.8683 25.02 68.8683 26.2V37H64.6683V34.36L65.6883 34.18C65.2083 34.9 64.6783 35.5 64.0983 35.98C63.5183 36.44 62.8683 36.78 62.1483 37C61.4283 37.24 60.6283 37.36 59.7483 37.36ZM72.1686 37V14.29H76.6686V37H72.1686ZM87.8515 37.36C86.1115 37.36 84.6015 36.98 83.3215 36.22C82.0415 35.44 81.0515 34.4 80.3515 33.1C79.6515 31.8 79.3015 30.36 79.3015 28.78C79.3015 27.14 79.6615 25.68 80.3815 24.4C81.1215 23.12 82.1115 22.11 83.3515 21.37C84.5915 20.63 85.9915 20.26 87.5515 20.26C88.8515 20.26 90.0015 20.47 91.0015 20.89C92.0015 21.29 92.8415 21.86 93.5215 22.6C94.2215 23.34 94.7515 24.2 95.1115 25.18C95.4715 26.14 95.6515 27.19 95.6515 28.33C95.6515 28.65 95.6315 28.97 95.5915 29.29C95.5715 29.59 95.5215 29.85 95.4415 30.07H83.1715V26.77H92.8915L90.7615 28.33C90.9615 27.47 90.9515 26.71 90.7315 26.05C90.5115 25.37 90.1215 24.84 89.5615 24.46C89.0215 24.06 88.3515 23.86 87.5515 23.86C86.7715 23.86 86.1015 24.05 85.5415 24.43C84.9815 24.81 84.5615 25.37 84.2815 26.11C84.0015 26.85 83.8915 27.75 83.9515 28.81C83.8715 29.73 83.9815 30.54 84.2815 31.24C84.5815 31.94 85.0415 32.49 85.6615 32.89C86.2815 33.27 87.0315 33.46 87.9115 33.46C88.7115 33.46 89.3915 33.3 89.9515 32.98C90.5315 32.66 90.9815 32.22 91.3015 31.66L94.9015 33.37C94.5815 34.17 94.0715 34.87 93.3715 35.47C92.6915 36.07 91.8815 36.54 90.9415 36.88C90.0015 37.2 88.9715 37.36 87.8515 37.36ZM98.3014 37V20.62H102.501V23.86L102.261 23.14C102.641 22.16 103.251 21.44 104.091 20.98C104.951 20.5 105.951 20.26 107.091 20.26C108.331 20.26 109.411 20.52 110.331 21.04C111.271 21.56 112.001 22.29 112.521 23.23C113.041 24.15 113.301 25.23 113.301 26.47V37H108.801V27.43C108.801 26.79 108.671 26.24 108.411 25.78C108.171 25.32 107.821 24.96 107.361 24.7C106.921 24.44 106.401 24.31 105.801 24.31C105.221 24.31 104.701 24.44 104.241 24.7C103.781 24.96 103.421 25.32 103.161 25.78C102.921 26.24 102.801 26.79 102.801 27.43V37H98.3014ZM124.15 37.18C122.17 37.18 120.63 36.65 119.53 35.59C118.45 34.51 117.91 33.01 117.91 31.09V24.52H115.15V20.62H115.3C116.14 20.62 116.78 20.41 117.22 19.99C117.68 19.57 117.91 18.94 117.91 18.1V16.9H122.41V20.62H126.25V24.52H122.41V30.79C122.41 31.35 122.51 31.82 122.71 32.2C122.91 32.56 123.22 32.83 123.64 33.01C124.06 33.19 124.58 33.28 125.2 33.28C125.34 33.28 125.5 33.27 125.68 33.25C125.86 33.23 126.05 33.21 126.25 33.19V37C125.95 37.04 125.61 37.08 125.23 37.12C124.85 37.16 124.49 37.18 124.15 37.18ZM127.567 37V33.4L136.987 23.02L137.647 24.52H127.957V20.62H141.637V24.22L132.457 34.63L131.797 33.1H141.667V37H127.567ZM143.653 37V20.62H148.153V37H143.653ZM143.653 19.15V14.65H148.153V19.15H143.653ZM150.156 37L155.886 28.78L150.126 20.62H155.346L159.666 26.98H157.386L161.706 20.62H166.926L161.166 28.78L166.866 37H161.676L157.446 30.64H159.606L155.376 37H150.156Z" fill="#17012C"/>
</svg>
