<svg xmlns="http://www.w3.org/2000/svg" width="1763.908" height="457.331" viewBox="0 0 1763.908 457.331"><g transform="translate(19533.59 7378.635)"><path d="M372.032,89.86c45.052,0,66.343,24.955,66.343,56.2,0,24.406-13.437,47.7-45.5,54.845l48.009,80.054h-29.91L365.47,202.8H335.325v78.154H310.37V89.86Zm0,20.567H335.3V182.9h36.727c28.246,0,40.585-15.357,40.585-36.746S400.571,110.427,372.032,110.427Z" transform="translate(-19379.932 -7394.865)" fill="#49484c"/><path d="M465,264.623c-42.759,0-74.3-30.145-74.3-77.861S421.139,109.45,465,109.45s72.1,30.694,72.1,71.828a130.665,130.665,0,0,1-.823,15.082H416.2c1.959,30.439,23.309,47.167,48.792,47.167,22.487,0,36.746-11.517,42.231-27.7H534.1C526.442,243.253,502.271,264.623,465,264.623Zm-48.538-88.555h94.863c.274-29.381-21.664-45.5-47.441-45.5C439.513,130.565,419.2,146.745,416.457,176.067Z" transform="translate(-19302.926 -7376.079)" fill="#49484c"/><path d="M548.759,109.46c27.971,0,47.147,14.26,55.922,29.871V111.908h25.229V262.145H604.682V234.194c-9.049,16.179-28.519,30.439-56.2,30.439-40.018,0-71.005-31.536-71.005-78.115C477.48,139.605,508.448,109.46,548.759,109.46Zm4.916,21.664c-27.423,0-50.712,20-50.712,55.374s23.309,56.2,50.712,56.2S604.6,222.128,604.6,186.753C604.682,151.945,581.118,131.124,553.676,131.124Z" transform="translate(-19219.705 -7376.078)" fill="#49484c"/><path d="M576.85,83.84H601.8V286.728H576.85Z" transform="translate(-19124.449 -7400.645)" fill="#49484c"/><g transform="translate(-18489.482 -7316.797)"><path d="M701.931,88.6c41.388,0,74.276,20.822,88.535,57.842H760.6c-10.421-23.015-30.713-35.924-58.664-35.924-40.018,0-69.909,29.068-69.909,75.941s29.891,75.667,69.909,75.667c27.951,0,48.244-12.869,58.664-35.63h29.871c-14.26,36.746-47.147,57.294-88.535,57.294-53.455,0-95.411-40.017-95.411-97.331S648.476,88.6,701.931,88.6Z" transform="translate(-606.52 -79.276)" fill="#f6a41c"/><path d="M853.255,260.966H828.3V238.754c-9.618,15.67-27.972,24.387-47.991,24.387-34.532,0-61.68-21.389-61.68-64.423V110.71h24.68V195.5c0,30.439,16.708,46.07,41.936,46.07,25.777,0,43.093-15.925,43.093-48.244v-82.6h24.955Z" transform="translate(-499.034 -58.078)" fill="#f6a41c"/><path d="M890.051,134.023c40.586,0,71.3,30.145,71.3,77.038s-30.988,78.115-71.3,78.115c-27.422,0-46.873-13.711-56.2-30.145v27.7H808.9V83.84h24.954v80.622C843.452,147.715,863.471,134.023,890.051,134.023Zm-5.21,21.664c-27.128,0-50.928,20.822-50.928,55.648,0,35.375,23.858,55.942,50.928,55.942,27.7,0,50.928-20.841,50.928-56.2S912.537,155.687,884.841,155.687Z" transform="translate(-412.486 -83.84)" fill="#f6a41c"/><path d="M973.056,264.623c-42.76,0-74.3-30.145-74.3-77.861s30.439-77.312,74.3-77.312,72.1,30.694,72.1,71.828a135.578,135.578,0,0,1-.823,15.082H924.263c1.959,30.439,23.289,47.167,48.792,47.167,22.487,0,36.746-11.517,42.23-27.7h26.934C1034.385,243.253,1010.35,264.623,973.056,264.623Zm-48.538-88.555h94.862c.275-29.381-21.663-45.5-47.44-45.5C947.552,130.565,927.28,146.745,924.518,176.067Z" transform="translate(-326.332 -59.286)" fill="#f6a41c"/></g><path d="M317.817,244.893V274.1H311.49V210.87h6.327v29.636l27.423-29.577h8.05l-29.6,31.536,29.93,31.634H345.3Z" transform="translate(-19378.859 -7278.847)" fill="#49484c"/><path d="M374.711,239.555c0-10.949-5.876-16.551-15-16.551s-15.67,5.778-15.67,17.825v26.933H337.73v-49.38h6.405v8.4c3.173-6.15,9.52-9.3,16.845-9.3,11.2,0,20.077,6.875,20.077,21.35v28.931h-6.248Z" transform="translate(-19353.709 -7272.507)" fill="#49484c"/><path d="M389.994,268.468c-13.927,0-24.5-9.794-24.5-25.464s10.832-25.464,24.681-25.464,24.68,9.676,24.68,25.464S403.921,268.468,389.994,268.468Zm0-5.524c9.324,0,18.374-6.327,18.374-19.9s-8.893-19.9-18.374-19.9-18.2,6.327-18.2,19.9S380.573,262.944,389.994,262.944Z" transform="translate(-19327.078 -7272.452)" fill="#49484c"/><path d="M393.61,218h6.425l12.3,42.975L426.164,218h6.327L446.2,261.093,458.406,218h6.248l-15.435,49.282h-6.327l-13.711-41.428-13.712,41.428h-6.4Z" transform="translate(-19300.123 -7272.012)" fill="#49484c"/><path d="M444.23,210.88h7.149l16.453,32.829,16.375-32.829h7.052l-20.254,38.627v24.6h-6.326v-24.6Z" transform="translate(-19251.609 -7278.836)" fill="#49484c"/><path d="M495.994,268.468c-13.926,0-24.5-9.794-24.5-25.464s10.851-25.464,24.681-25.464,24.7,9.676,24.7,25.464S509.921,268.468,495.994,268.468Zm0-5.524c9.324,0,18.373-6.327,18.373-19.9s-8.893-19.9-18.373-19.9-18.177,6.327-18.177,19.9S486.572,262.944,495.994,262.944Z" transform="translate(-19225.453 -7272.452)" fill="#49484c"/><path d="M545.629,267.282H539.3V258.6c-3,6.249-9.52,9.5-16.826,9.5-11.224,0-20.1-6.875-20.1-21.35V218h6.248v28.128c0,10.95,5.877,16.571,15,16.571s15.67-5.876,15.67-17.824V218h6.327Z" transform="translate(-19195.844 -7272.012)" fill="#49484c"/><path d="M538.166,267.723H531.84V218.441h6.326v8.776c2.723-6.053,8.423-9.676,16.924-9.676v6.6h-1.724c-8.208,0-15.2,3.7-15.2,16.1Z" transform="translate(-19167.6 -7272.452)" fill="#49484c"/><path d="M590.688,210.51c14.1,0,24.6,7.051,29.127,19.2h-7.424c-3.526-8.423-10.929-13.711-21.7-13.711-13.848,0-24.425,10.205-24.425,26.776s10.577,26.678,24.425,26.678c10.773,0,18.177-5.249,21.7-13.476h7.424c-4.525,11.949-15,19-29.127,19-17.628,0-30.948-13.2-30.948-32.2S573.138,210.51,590.688,210.51Z" transform="translate(-19140.838 -7279.191)" fill="#49484c"/><path d="M619.874,268.468c-13.946,0-24.523-9.794-24.523-25.464S606.2,217.54,620.03,217.54s24.7,9.676,24.7,25.464S633.839,268.468,619.874,268.468Zm0-5.524c9.3,0,18.353-6.327,18.353-19.9s-8.873-19.9-18.256-19.9-18.2,6.327-18.2,19.9S610.452,262.944,619.874,262.944Z" transform="translate(-19106.713 -7272.452)" fill="#49484c"/><path d="M698.632,239.565c0-10.95-5.7-16.552-14.475-16.552s-15.3,5.876-15.3,17.982v26.776h-6.15V239.565c0-10.95-5.876-16.552-14.554-16.552s-15.3,5.876-15.3,17.982v26.776H626.53V218.39h6.327v8.5a17.629,17.629,0,0,1,16.355-9.4c8.226,0,15.3,3.917,18.275,12.105a17.982,17.982,0,0,1,17.825-12.105c10.95,0,19.588,6.875,19.588,21.351v28.931h-6.249V239.565Z" transform="translate(-19076.814 -7272.515)" fill="#49484c"/><path d="M745.88,239.565c0-10.95-5.68-16.552-14.475-16.552s-15.278,5.876-15.278,17.982v26.776h-6.249V239.565c0-10.95-5.876-16.552-14.573-16.552s-15.3,5.876-15.3,17.982v26.776H673.68V218.39h6.326v8.5a17.63,17.63,0,0,1,16.375-9.4c8.227,0,15.3,3.917,18.255,12.105a17.981,17.981,0,0,1,17.825-12.105c10.949,0,19.587,6.875,19.587,21.351v28.931H745.8V239.565Z" transform="translate(-19031.604 -7272.515)" fill="#49484c"/><path d="M763.909,267.282h-6.327V258.6c-3,6.249-9.519,9.5-16.825,9.5-11.224,0-20.1-6.875-20.1-21.35V218h6.248v28.128c0,10.95,5.876,16.571,15,16.571s15.67-5.876,15.67-17.824V218h6.327Z" transform="translate(-18986.57 -7272.012)" fill="#49484c"/><path d="M787.111,239.555c0-10.949-5.876-16.551-15-16.551s-15.67,5.778-15.67,17.825v26.933H750.11v-49.38h6.327v8.4c3.173-6.15,9.519-9.3,16.826-9.3,11.224,0,20.1,6.875,20.1,21.35v28.931h-6.248Z" transform="translate(-18958.338 -7272.507)" fill="#49484c"/><path d="M778.635,212.9a4.623,4.623,0,1,1,2.215,4.254A4.622,4.622,0,0,1,778.635,212.9Zm1.43,14.044h6.326v49.38h-6.326Z" transform="translate(-18930.98 -7281.048)" fill="#49484c"/><path d="M794.235,229.3H787.36v-5.23h6.875v-12.4h6.425v12.4h13.574V229.4H800.66v30.655c0,6.072,2.056,7.953,7.835,7.953h5.876v5.426h-6.8c-8.58,0-13.2-3.526-13.2-13.4Z" transform="translate(-18922.621 -7278.083)" fill="#49484c"/><path d="M843.466,218h6.5l-29.3,72.474h-6.6l9.578-23.505L803.37,218h6.973l16.825,42.133Z" transform="translate(-18907.266 -7272.012)" fill="#49484c"/><path d="M866.089,274.109H844.21V210.88h21.253c13.3,0,19.587,7.052,19.587,15.925a14.572,14.572,0,0,1-11.3,14.671,15.906,15.906,0,0,1,12.732,15.67C886.539,266.7,879.389,274.109,866.089,274.109Zm-1.058-57.9H850.557v22.624h14.788c8.6,0,13.4-4.348,13.4-11.4S874.14,216.208,865.032,216.208Zm.333,27.873H850.536v24.681h15.1c9.147,0,14.573-4.6,14.573-12.2s-5.8-12.477-14.867-12.477Z" transform="translate(-18868.121 -7278.836)" fill="#49484c"/><path d="M894.539,268.468c-14.025,0-24.23-9.794-24.23-25.464s10.029-25.464,24.23-25.464,23.348,10.3,23.348,22.878a44.212,44.212,0,0,1-.176,4.975H876.735c.549,11.576,8.6,17.629,17.825,17.629,8.422,0,14.122-4.446,15.945-11.047h6.679C914.911,261.377,906.919,268.468,894.539,268.468ZM876.715,240.32h34.728c.275-11.478-8.031-17.276-17.178-17.276S877.538,228.823,876.715,240.32Z" transform="translate(-18843.086 -7272.452)" fill="#49484c"/><path d="M904.8,229.3H897.92v-5.23H904.8v-12.4h6.425v12.4h13.574V229.4H911.22v30.655c0,6.072,2.1,7.953,7.836,7.953h5.875v5.426h-6.8c-8.579,0-13.2-3.526-13.2-13.4Z" transform="translate(-18816.615 -7278.083)" fill="#49484c"/><path d="M921.246,229.3H914.37v-5.23h6.875v-12.4h6.425v12.4h13.573V229.4H927.671v30.655c0,6.072,2.1,7.953,7.835,7.953h5.876v5.426h-6.8c-8.579,0-13.2-3.526-13.2-13.4Z" transform="translate(-18800.848 -7278.083)" fill="#49484c"/><path d="M956.159,268.468c-14.024,0-24.249-9.794-24.249-25.464s10.048-25.464,24.249-25.464,23.349,10.3,23.349,22.878a44.386,44.386,0,0,1-.177,4.975H938.354c.549,11.576,8.6,17.629,17.826,17.629,8.422,0,14.1-4.446,15.924-11.047h6.7C976.511,261.377,968.559,268.468,956.159,268.468ZM938.354,240.32h34.729c.275-11.478-8.05-17.276-17.178-17.276S939.06,228.823,938.354,240.32Z" transform="translate(-18784.018 -7272.452)" fill="#49484c"/><path d="M968.456,267.723H962.13V218.441h6.326v8.776c2.723-6.053,8.424-9.676,16.924-9.676v6.6h-1.724c-8.227,0-15.2,3.7-15.2,16.1v27.579Z" transform="translate(-18755.063 -7272.452)" fill="#49484c"/><path d="M198.814,457.331h0L0,339.727v-224.9L196.933,0,393.847,114.822v224.9L198.814,457.33Zm.235-393.907L57.2,140.893V307.954l140.932,83.992,140.934-83.992v-159.6Z" transform="translate(-19533.59 -7378.635)" fill="#49484c"/><path d="M244.614,375.3V208.887L101.82,125.17" transform="translate(-19579.885 -7361.011)" fill="none" stroke="#fff" stroke-miterlimit="10" stroke-width="0.2"/><line x1="143.185" y2="79.134" transform="translate(-19335.26 -7231.257)" fill="none" stroke="#fff" stroke-miterlimit="10" stroke-width="0.2"/><path d="M330.028,285.186l-43.876-22.408,43.876-29.871.216-63.993L226.43,106.92,124.711,167.583l-3.741,117.6,53.2,31.732L177.892,204l47.6-28.01,45.815,24.6-45.051,25.8-.431,70.163,47.284,25.033,56.921-36.394" transform="translate(-19561.52 -7378.516)" fill="#f6a41c"/></g></svg>