<svg width="17" height="17" viewBox="0 0 17 17" fill="none" xmlns="http://www.w3.org/2000/svg">
<g clip-path="url(#clip0_314_9677)">
<path d="M14.9448 8.22341H13.3929V8.11887C13.3927 7.93262 13.3196 7.75405 13.1898 7.62234C13.0599 7.49064 12.8839 7.41656 12.7003 7.41636H10.9271C10.7437 7.41676 10.5679 7.49096 10.4384 7.62266C10.3088 7.75436 10.236 7.93282 10.236 8.11887V8.22341H3.84965V3.04537C3.84994 2.7162 3.94635 2.39451 4.12674 2.12088C4.30712 1.84726 4.56338 1.63398 4.86317 1.50796C5.16295 1.38195 5.49283 1.34885 5.81115 1.41284C6.12946 1.47684 6.42196 1.63506 6.65169 1.86753C6.76136 1.98112 6.85477 2.10976 6.92918 2.24969C6.5927 2.39602 6.3173 2.65717 6.15073 2.98786C5.98415 3.31854 5.93689 3.69793 6.01715 4.06025C6.02482 4.09474 6.03913 4.12735 6.05925 4.15621C6.07938 4.18508 6.10492 4.20963 6.13441 4.22847C6.16391 4.2473 6.19678 4.26005 6.23114 4.26598C6.2655 4.27191 6.30067 4.2709 6.33465 4.26301L8.86708 3.67886C8.9011 3.67094 8.93325 3.65629 8.96168 3.63575C8.99011 3.6152 9.01426 3.58916 9.03274 3.55913C9.05123 3.52909 9.06369 3.49565 9.06941 3.46072C9.07513 3.42579 9.07399 3.39006 9.06606 3.35558C8.98596 2.99074 8.78063 2.66666 8.48673 2.4412C8.19283 2.21573 7.82949 2.10356 7.46159 2.12471C7.35414 1.88821 7.20685 1.67253 7.02633 1.48737C6.7224 1.17982 6.33546 0.970497 5.91435 0.885819C5.49324 0.801141 5.05684 0.844906 4.66023 1.01159C4.26362 1.17827 3.92458 1.46041 3.68591 1.82237C3.44725 2.18433 3.31965 2.60991 3.31922 3.04537V8.22341H2.36899C2.16697 8.22429 1.97276 8.30266 1.82533 8.44277C1.67791 8.58288 1.5882 8.77437 1.57419 8.9788C1.56019 9.18323 1.62293 9.38546 1.74984 9.54491C1.87674 9.70436 2.0584 9.80921 2.25836 9.83843V11.0581C2.25917 11.5602 2.38333 12.0543 2.61962 12.4955C2.85591 12.9368 3.19688 13.3114 3.61172 13.5855V14.2033C3.61172 14.4181 3.69586 14.6242 3.84565 14.7761C3.99543 14.928 4.19857 15.0134 4.4104 15.0134C4.62222 15.0134 4.82536 14.928 4.97515 14.7761C5.12493 14.6242 5.20907 14.4181 5.20907 14.2033V14.0737H5.23029H11.9349V14.2028C11.9349 14.4175 12.019 14.6233 12.1686 14.7751C12.3183 14.9269 12.5212 15.0122 12.7329 15.0122C12.9445 15.0122 13.1474 14.9269 13.2971 14.7751C13.4467 14.6233 13.5308 14.4175 13.5308 14.2028V13.6912C13.9944 13.4314 14.3806 13.0499 14.6489 12.5866C14.9171 12.1233 15.0575 11.5954 15.0554 11.0581V9.83843C15.2453 9.81176 15.4194 9.71641 15.5455 9.56994C15.6716 9.42346 15.7414 9.23571 15.7419 9.04122V9.03353C15.7419 8.81894 15.658 8.61311 15.5085 8.46123C15.3591 8.30935 15.1563 8.22381 14.9448 8.22341ZM8.45834 3.22015L6.50923 3.67025C6.51889 3.43765 6.60387 3.21477 6.75102 3.03611C6.89817 2.85745 7.09928 2.73298 7.32322 2.68196H7.32564L7.3314 2.68104C7.33595 2.68104 7.3405 2.67981 7.34504 2.67889C7.41165 2.66568 7.47935 2.65898 7.54721 2.6589C7.7351 2.65892 7.91937 2.71127 8.07993 2.81024C8.24049 2.90921 8.37118 3.051 8.45774 3.22015H8.45834ZM10.7665 11.1057H12.8624V11.4931C12.8622 11.5365 12.8449 11.578 12.8145 11.6086C12.7841 11.6391 12.7431 11.6562 12.7003 11.6561H10.9271C10.8845 11.656 10.8437 11.6388 10.8136 11.6083C10.7835 11.5777 10.7665 11.5363 10.7665 11.4931V11.1057ZM10.7665 8.11887C10.7663 8.07547 10.7831 8.03377 10.8133 8.00293C10.8434 7.97209 10.8843 7.95463 10.9271 7.95439H12.7003C12.7433 7.95447 12.7845 7.97183 12.8148 8.00266C12.8452 8.03348 12.8624 8.07528 12.8624 8.11887V10.5677H10.7665V8.11887ZM2.10226 9.03353C2.10214 8.9616 2.13016 8.89255 2.18016 8.84154C2.23017 8.79053 2.29808 8.76173 2.36899 8.76144H3.57989H3.58429C3.58429 8.76144 3.58717 8.76144 3.58868 8.76144H10.236V9.31177H2.36899C2.3334 9.31152 2.29821 9.30409 2.26546 9.28992C2.23272 9.27575 2.20308 9.25512 2.17826 9.22923C2.15345 9.20335 2.13395 9.17271 2.1209 9.13912C2.10786 9.10552 2.10152 9.06963 2.10226 9.03353ZM4.4104 14.4754C4.33928 14.4753 4.27109 14.4466 4.22081 14.3956C4.17052 14.3446 4.14223 14.2754 4.14215 14.2033V13.8608C4.31553 13.931 4.4952 13.984 4.67864 14.0191V14.2036C4.67848 14.2757 4.65016 14.3447 4.59988 14.3957C4.5496 14.4466 4.48146 14.4753 4.4104 14.4754ZM12.7321 14.4754C12.6612 14.4751 12.5933 14.4463 12.5433 14.3953C12.4933 14.3443 12.4652 14.2752 12.4654 14.2033V14.0472C12.6471 14.0234 12.8262 13.9822 13.0003 13.9243V14.2033C13.0003 14.2754 12.972 14.3446 12.9217 14.3956C12.8714 14.4466 12.8032 14.4753 12.7321 14.4754ZM14.525 11.0581C14.5258 11.698 14.2821 12.3133 13.8451 12.7748C13.4081 13.2363 12.8117 13.5081 12.1814 13.533C12.1485 13.5343 12.1165 13.5355 12.0835 13.5355H5.23029C5.14422 13.5358 5.05821 13.5312 4.97265 13.5217C4.63312 13.4858 4.305 13.377 4.01015 13.2025C3.63931 12.9848 3.33132 12.6722 3.11699 12.2958C2.90265 11.9195 2.78948 11.4927 2.78879 11.0581V9.84981H10.236V11.4931C10.2363 11.679 10.3092 11.8571 10.4387 11.9885C10.5683 12.1199 10.7439 12.1939 10.9271 12.1941H12.7003C12.8837 12.1941 13.0596 12.1203 13.1895 11.9889C13.3193 11.8575 13.3925 11.6792 13.3929 11.4931V9.84981H14.525V11.0581ZM15.2115 9.04122C15.2114 9.11295 15.1833 9.18172 15.1333 9.23244C15.0833 9.28316 15.0155 9.31169 14.9448 9.31177H13.3929V8.76144H14.9448C15.0157 8.76173 15.0836 8.79053 15.1336 8.84154C15.1836 8.89255 15.2116 8.9616 15.2115 9.03353V9.04122Z" fill="#2C2C2C"/>
</g>
<defs>
<clipPath id="clip0_314_9677">
<rect width="15.9409" height="15.9409" fill="white" transform="translate(0.980469 0.25)"/>
</clipPath>
</defs>
</svg>
