<svg width="15" height="16" viewBox="0 0 15 16" fill="none" xmlns="http://www.w3.org/2000/svg">
<g clip-path="url(#clip0_314_9700)">
<path d="M12.72 6.11649H12.4986V4.34529C12.4979 3.73422 12.0027 3.239 11.3916 3.23828H3.86398C3.25291 3.239 2.7577 3.73422 2.75698 4.34529V6.11649H2.53558C1.43566 6.11782 0.544297 7.00918 0.542969 8.1091V11.2087H0.98577V12.7585H2.09277V11.2087H13.1628V12.7585H14.2698V11.2087H14.7126V8.1091C14.7113 7.00918 13.8199 6.11782 12.72 6.11649ZM3.19978 4.34529C3.19978 3.97845 3.49715 3.68108 3.86398 3.68108H11.3916C11.7584 3.68108 12.0558 3.97845 12.0558 4.34529V6.11649H11.3916V5.23089C11.3916 4.86405 11.0942 4.56669 10.7274 4.56669H8.7348C8.36796 4.56669 8.07059 4.86405 8.07059 5.23089V6.11649H7.18499V5.23089C7.18499 4.86405 6.88762 4.56669 6.52079 4.56669H4.52818C4.16135 4.56669 3.86398 4.86405 3.86398 5.23089V6.11649H3.19978V4.34529ZM10.9488 5.23089V6.11649H8.5134V5.23089C8.5134 5.10862 8.61253 5.00949 8.7348 5.00949H10.7274C10.8497 5.00949 10.9488 5.10862 10.9488 5.23089ZM6.74219 5.23089V6.11649H4.30678V5.23089C4.30678 5.10862 4.40591 5.00949 4.52818 5.00949H6.52079C6.64306 5.00949 6.74219 5.10862 6.74219 5.23089ZM1.64997 12.3157H1.42857V11.2087H1.64997V12.3157ZM13.827 12.3157H13.6056V11.2087H13.827V12.3157ZM14.2698 10.7659H0.98577V9.6589H14.2698V10.7659ZM14.2698 9.2161H0.98577V8.1091C0.986739 7.25358 1.68006 6.56026 2.53558 6.55929H12.72C13.5755 6.56026 14.2688 7.25358 14.2698 8.1091V9.2161Z" fill="#2C2C2C"/>
</g>
<defs>
<clipPath id="clip0_314_9700">
<rect width="14.1696" height="14.1696" fill="white" transform="translate(0.545898 0.914062)"/>
</clipPath>
</defs>
</svg>
