<svg width="16" height="16" viewBox="0 0 16 16" fill="none" xmlns="http://www.w3.org/2000/svg">
<g clip-path="url(#clip0_314_9600)">
<path d="M12.7557 12.7344C12.6134 12.7344 12.4743 12.7766 12.3559 12.8556C12.2376 12.9347 12.1454 13.0471 12.0909 13.1786C12.0364 13.3101 12.0222 13.4548 12.05 13.5944C12.0777 13.7339 12.1463 13.8622 12.2469 13.9628C12.3475 14.0634 12.4758 14.132 12.6153 14.1597C12.7549 14.1875 12.8996 14.1733 13.0311 14.1188C13.1626 14.0643 13.275 13.9721 13.354 13.8538C13.4331 13.7354 13.4753 13.5963 13.4753 13.454C13.4753 13.2631 13.3995 13.0801 13.2646 12.9451C13.1296 12.8102 12.9466 12.7344 12.7557 12.7344ZM12.7557 13.6938C12.7083 13.6938 12.6619 13.6798 12.6225 13.6534C12.583 13.6271 12.5523 13.5896 12.5341 13.5458C12.516 13.5019 12.5112 13.4537 12.5205 13.4072C12.5297 13.3606 12.5526 13.3179 12.5861 13.2844C12.6197 13.2508 12.6624 13.228 12.7089 13.2187C12.7555 13.2095 12.8037 13.2142 12.8475 13.2324C12.8913 13.2505 12.9288 13.2813 12.9552 13.3207C12.9815 13.3602 12.9956 13.4065 12.9956 13.454C12.9956 13.5176 12.9703 13.5786 12.9253 13.6236C12.8804 13.6686 12.8193 13.6938 12.7557 13.6938Z" fill="#2C2C2C"/>
<path d="M3.161 12.7344C3.01868 12.7344 2.87955 12.7766 2.76122 12.8556C2.64288 12.9347 2.55065 13.0471 2.49618 13.1786C2.44172 13.3101 2.42747 13.4548 2.45523 13.5944C2.483 13.7339 2.55153 13.8622 2.65217 13.9628C2.75281 14.0634 2.88103 14.132 3.02061 14.1597C3.1602 14.1875 3.30489 14.1733 3.43638 14.1188C3.56787 14.0643 3.68025 13.9721 3.75932 13.8538C3.83839 13.7354 3.88059 13.5963 3.88059 13.454C3.88059 13.2631 3.80478 13.0801 3.66983 12.9451C3.53488 12.8102 3.35185 12.7344 3.161 12.7344ZM3.161 13.6938C3.11356 13.6938 3.06718 13.6798 3.02774 13.6534C2.98829 13.6271 2.95755 13.5896 2.93939 13.5458C2.92124 13.5019 2.91649 13.4537 2.92575 13.4072C2.935 13.3606 2.95785 13.3179 2.99139 13.2844C3.02494 13.2508 3.06768 13.228 3.11421 13.2187C3.16073 13.2095 3.20896 13.2142 3.25279 13.2324C3.29662 13.2505 3.33408 13.2813 3.36044 13.3207C3.3868 13.3602 3.40087 13.4065 3.40087 13.454C3.40087 13.5176 3.37559 13.5786 3.33061 13.6236C3.28563 13.6686 3.22462 13.6938 3.161 13.6938Z" fill="#2C2C2C"/>
<path d="M6.75879 10.3359H7.71825V10.8157H6.75879V10.3359Z" fill="#2C2C2C"/>
<path d="M14.193 0.257812H10.8351C10.5171 0.258193 10.2123 0.384665 9.98749 0.609487C9.76267 0.834308 9.6362 1.13912 9.63582 1.45707V4.81498C9.6362 5.13292 9.76267 5.43774 9.98749 5.66256C10.2123 5.88738 10.5171 6.01385 10.8351 6.01423H11.7945V8.7929L11.7151 8.71351C11.0731 8.07203 10.3795 7.48449 9.6411 6.95685C9.22008 6.65491 8.7148 6.49297 8.19671 6.49393H3.8794C3.47588 6.49448 3.081 6.61091 2.74174 6.82938C2.40247 7.04785 2.13309 7.35916 1.96563 7.72629C1.48655 8.77617 1.23941 9.91699 1.24104 11.071V11.561C1.03522 11.6145 0.852941 11.7347 0.722739 11.9029C0.592537 12.071 0.521759 12.2776 0.521484 12.4902C0.522043 12.7484 0.611739 12.9985 0.775407 13.1981C0.939075 13.3978 1.16667 13.5349 1.41973 13.5861L1.48856 13.5998C1.5249 14.0096 1.71059 14.3917 2.01031 14.6735C2.31003 14.9554 2.70287 15.1172 3.11413 15.1283C3.52539 15.1394 3.92638 14.9989 4.24083 14.7336C4.55529 14.4683 4.76127 14.0967 4.81961 13.6895H11.0941C11.1519 14.0922 11.3542 14.4602 11.6631 14.7249C11.9721 14.9895 12.3668 15.1329 12.7736 15.1282C13.1804 15.1236 13.5717 14.9712 13.8745 14.6995C14.1773 14.4278 14.3711 14.0553 14.4196 13.6513C14.7295 13.5761 15.0001 13.3879 15.1785 13.1236C15.3181 12.9149 15.3925 12.6694 15.3922 12.4182C15.3913 11.7658 15.1811 11.1308 14.7926 10.6067C14.404 10.0825 13.8576 9.69682 13.2336 9.50622V6.01423H14.193C14.5109 6.01385 14.8157 5.88738 15.0406 5.66256C15.2654 5.43774 15.3919 5.13292 15.3922 4.81498V1.45707C15.3919 1.13912 15.2654 0.834308 15.0406 0.609487C14.8157 0.384665 14.5109 0.258193 14.193 0.257812ZM2.40216 7.92488C2.53145 7.64152 2.7394 7.40125 3.00127 7.23262C3.26314 7.06399 3.56793 6.9741 3.8794 6.97364H8.19671C8.61484 6.97291 9.02262 7.10363 9.36239 7.34732C10.0796 7.85952 10.7535 8.42989 11.3771 9.05266L11.6952 9.37214H11.1131C10.5255 8.79365 9.89356 8.26204 9.22303 7.78217C8.92385 7.56771 8.56483 7.45268 8.19671 7.45334H3.8794C3.61397 7.45382 3.35425 7.53046 3.13109 7.67416C2.90792 7.81786 2.73069 8.02259 2.62042 8.26403C2.53839 8.44464 2.46572 8.62981 2.3988 8.81569L2.07836 8.77012C2.16957 8.48225 2.27769 8.20001 2.40216 7.92488ZM10.907 9.86456C11.0954 10.4297 11.1266 11.0354 10.9972 11.6169L10.6432 13.2098H6.70484L6.38704 11.9385C6.24137 11.3559 6.24137 10.7463 6.38704 10.1637L6.46499 9.85184H10.9022L10.907 9.86456ZM3.3215 11.7788L2.84972 10.6779C2.77523 10.5038 2.65126 10.3555 2.49319 10.2513C2.33512 10.147 2.14992 10.0916 1.96059 10.0917H1.78598C1.82307 9.80339 1.87688 9.51749 1.94716 9.23543L5.98073 9.81107L5.92197 10.0471C5.75695 10.7058 5.75695 11.395 5.92197 12.0537L6.21075 13.2098H4.81961C4.76564 12.8382 4.58879 12.4954 4.31726 12.236C4.04574 11.9766 3.69518 11.8157 3.3215 11.7788ZM6.51776 9.37214V7.93304H8.19671C8.46491 7.93259 8.72645 8.0165 8.94433 8.17289C9.46026 8.54167 9.95275 8.94219 10.4189 9.37214H6.51776ZM6.03805 7.93304V9.33545L2.8833 8.88477C2.93702 8.74277 2.99387 8.60126 3.05695 8.46263C3.12898 8.3049 3.24476 8.17116 3.39055 8.07728C3.53634 7.98341 3.706 7.93335 3.8794 7.93304H6.03805ZM1.00119 12.4902C1.00119 12.363 1.05173 12.241 1.14169 12.151C1.23165 12.061 1.35366 12.0105 1.48089 12.0105C1.5445 12.0105 1.60551 11.9852 1.65049 11.9403C1.69547 11.8953 1.72074 11.8343 1.72074 11.7707V11.071C1.72074 10.9031 1.72793 10.7371 1.73873 10.5714H1.96059C2.05604 10.5713 2.1494 10.5993 2.22909 10.6519C2.30878 10.7044 2.37129 10.7792 2.40887 10.8669L2.81182 11.8073C2.49181 11.8757 2.19867 12.0359 1.96826 12.2683C1.73785 12.5007 1.58016 12.7952 1.51447 13.1157C1.36993 13.0866 1.23989 13.0084 1.14635 12.8944C1.05282 12.7805 1.00154 12.6377 1.00119 12.4902ZM3.15984 14.6489C2.92265 14.6489 2.69079 14.5785 2.49357 14.4468C2.29636 14.315 2.14265 14.1277 2.05188 13.9085C1.96111 13.6894 1.93736 13.4483 1.98363 13.2156C2.02991 12.983 2.14412 12.7693 2.31184 12.6016C2.47956 12.4339 2.69325 12.3197 2.92588 12.2734C3.15851 12.2271 3.39964 12.2509 3.61878 12.3416C3.83791 12.4324 4.02521 12.5861 4.15699 12.7833C4.28876 12.9806 4.3591 13.2124 4.3591 13.4496C4.35872 13.7676 4.23225 14.0724 4.00742 14.2972C3.7826 14.522 3.47779 14.6485 3.15984 14.6489ZM12.7539 14.6489C12.5167 14.6489 12.2848 14.5785 12.0876 14.4468C11.8904 14.315 11.7367 14.1277 11.6459 13.9085C11.5551 13.6894 11.5314 13.4483 11.5777 13.2156C11.6239 12.983 11.7382 12.7693 11.9059 12.6016C12.0736 12.4339 12.2873 12.3197 12.5199 12.2734C12.7525 12.2271 12.9937 12.2509 13.2128 12.3416C13.4319 12.4324 13.6192 12.5861 13.751 12.7833C13.8828 12.9806 13.9531 13.2124 13.9531 13.4496C13.9528 13.7676 13.8263 14.0724 13.6015 14.2972C13.3766 14.522 13.0718 14.6485 12.7539 14.6489ZM14.7794 12.8569C14.6878 12.9914 14.557 13.0943 14.4048 13.1517C14.342 12.8027 14.1702 12.4826 13.9141 12.2374C13.6579 11.9922 13.3306 11.8346 12.9792 11.7871C12.6278 11.7397 12.2704 11.8049 11.9584 11.9734C11.6464 12.1419 11.3959 12.4049 11.2428 12.7248L11.4656 11.721C11.6038 11.1027 11.5818 10.4593 11.4016 9.85184H12.3461C12.8304 9.85182 13.3047 9.98986 13.7133 10.2498V11.0511C13.7133 11.3055 13.8144 11.5496 13.9943 11.7295C14.1742 11.9094 14.4182 12.0105 14.6727 12.0105H14.877C14.8997 12.1453 14.9116 12.2816 14.9125 12.4182C14.9127 12.5744 14.8663 12.7272 14.7794 12.8569ZM14.7514 11.5308H14.6727C14.5455 11.5308 14.4234 11.4803 14.3335 11.3903C14.2435 11.3003 14.193 11.1783 14.193 11.0511V10.6402C14.4385 10.8955 14.6286 11.1987 14.7514 11.5308ZM12.7539 9.40213C12.6279 9.38422 12.5009 9.37421 12.3737 9.37214L12.2742 9.2726V6.01423H12.7539V9.40213ZM14.9125 4.81498C14.9125 5.00582 14.8367 5.18884 14.7018 5.32378C14.5668 5.45872 14.3838 5.53453 14.193 5.53453H10.8351C10.6442 5.53453 10.4612 5.45872 10.3263 5.32378C10.1913 5.18884 10.1155 5.00582 10.1155 4.81498V1.45707C10.1155 1.26623 10.1913 1.08321 10.3263 0.948266C10.4612 0.813324 10.6442 0.737514 10.8351 0.737514H14.193C14.3838 0.737514 14.5668 0.813324 14.7018 0.948266C14.8367 1.08321 14.9125 1.26623 14.9125 1.45707V4.81498Z" fill="#2C2C2C"/>
<path d="M12.9949 1.21875H11.5562C11.4926 1.21875 11.4316 1.24401 11.3866 1.28898C11.3417 1.33395 11.3164 1.39494 11.3164 1.45854V5.05534H11.796V3.61662H12.9949C13.3129 3.61662 13.6178 3.4903 13.8427 3.26546C14.0675 3.04061 14.1938 2.73566 14.1938 2.41768C14.1938 2.09971 14.0675 1.79475 13.8427 1.56991C13.6178 1.34507 13.3129 1.21875 12.9949 1.21875ZM12.9949 3.13704H11.796V1.69832H12.9949C13.1857 1.69832 13.3687 1.77411 13.5036 1.90902C13.6385 2.04393 13.7143 2.2269 13.7143 2.41768C13.7143 2.60847 13.6385 2.79144 13.5036 2.92635C13.3687 3.06125 13.1857 3.13704 12.9949 3.13704Z" fill="#2C2C2C"/>
</g>
<defs>
<clipPath id="clip0_314_9600">
<rect width="15.3505" height="15.3505" fill="white" transform="translate(0.282227 0.0195312)"/>
</clipPath>
</defs>
</svg>
