<svg width="15" height="16" viewBox="0 0 15 16" fill="none" xmlns="http://www.w3.org/2000/svg">
<g clip-path="url(#clip0_314_9685)">
<path d="M9.02239 2.82224H12.9999V6.71855C12.9999 6.87226 13.1271 6.99685 13.284 6.99685C13.4409 6.99685 13.5681 6.87226 13.5681 6.71855V2.54393C13.5681 2.39022 13.4409 2.26562 13.284 2.26562H9.02239C8.8655 2.26562 8.73828 2.39022 8.73828 2.54393C8.73828 2.69764 8.8655 2.82224 9.02239 2.82224Z" fill="#2C2C2C"/>
<path d="M2.20403 6.99685C2.36094 6.99685 2.48813 6.87226 2.48813 6.71855V2.82224H6.46561C6.62252 2.82224 6.74972 2.69764 6.74972 2.54393C6.74972 2.39022 6.62252 2.26562 6.46561 2.26562H2.20403C2.04712 2.26562 1.91992 2.39022 1.91992 2.54393V6.71855C1.91992 6.87226 2.04712 6.99685 2.20403 6.99685Z" fill="#2C2C2C"/>
<path d="M2.2041 13.6867H6.46683C6.62378 13.6867 6.75101 13.562 6.75101 13.4083C6.75101 13.2546 6.62378 13.1299 6.46683 13.1299H2.48829V8.95416C2.48829 8.80044 2.36106 8.67578 2.2041 8.67578C2.04715 8.67578 1.91992 8.80044 1.91992 8.95416V13.4083C1.91992 13.562 2.04715 13.6867 2.2041 13.6867Z" fill="#2C2C2C"/>
<path d="M13.2852 8.67578C13.1283 8.67578 13.001 8.80044 13.001 8.95416V13.1299H9.02246C8.86554 13.1299 8.73828 13.2546 8.73828 13.4083C8.73828 13.562 8.86554 13.6867 9.02246 13.6867H13.2852C13.4421 13.6867 13.5694 13.562 13.5694 13.4083V8.95416C13.5694 8.80044 13.4421 8.67578 13.2852 8.67578Z" fill="#2C2C2C"/>
<path d="M4.61733 8.75781C4.46041 8.75781 4.33322 8.88244 4.33322 9.03612C4.33322 9.1898 4.46041 9.31443 4.61733 9.31443H5.94856L3.4211 11.7903C3.31015 11.899 3.31015 12.0752 3.4211 12.1839C3.47658 12.2382 3.54929 12.2654 3.62199 12.2654C3.69469 12.2654 3.76742 12.2382 3.82288 12.1839L6.35037 9.70804V11.0121C6.35037 11.1658 6.47756 11.2904 6.63448 11.2904C6.79139 11.2904 6.91858 11.1658 6.91858 11.0121V9.03612C6.91858 8.88244 6.79139 8.75781 6.63448 8.75781H4.61733Z" fill="#2C2C2C"/>
<path d="M8.82317 7.19509H10.8403C10.9972 7.19509 11.1244 7.0705 11.1244 6.91679C11.1244 6.76308 10.9972 6.63848 10.8403 6.63848H9.50908L12.0365 4.1626C12.1475 4.05392 12.1475 3.8777 12.0365 3.76899C11.9256 3.66034 11.7457 3.66034 11.6347 3.76899L9.10727 6.24487V4.9408C9.10727 4.78709 8.98005 4.6625 8.82317 4.6625C8.66629 4.6625 8.53906 4.78709 8.53906 4.9408V6.91679C8.53906 7.0705 8.66629 7.19509 8.82317 7.19509Z" fill="#2C2C2C"/>
<path d="M14.9902 1.18463C14.9902 1.03088 14.863 0.90625 14.7061 0.90625H0.809572C0.652619 0.90625 0.525391 1.03088 0.525391 1.18463V14.7975C0.525391 14.9513 0.652619 15.0759 0.809572 15.0759H14.7061C14.863 15.0759 14.9902 14.9513 14.9902 14.7975V1.18463ZM14.4219 14.4913H1.09375V1.46301H14.4219V14.4913Z" fill="#2C2C2C"/>
</g>
<defs>
<clipPath id="clip0_314_9685">
<rect width="14.4649" height="14.1696" fill="white" transform="translate(0.529297 0.914062)"/>
</clipPath>
</defs>
</svg>
